<mxfile host="app.diagrams.net" modified="2022-07-27T08:42:38.068Z" agent="5.0 (Windows NT 10.0; Win64; x64) AppleWebKit/537.36 (KHTML, like Gecko) Chrome/103.0.5060.114 Safari/537.36 Edg/103.0.1264.62" etag="cwoB4euH-LsaNgajshWg" version="20.1.1" type="github">
  <diagram id="tL6mBHUrjKtDYPv07tti" name="第 1 页">
    <mxGraphModel dx="1761" dy="965" grid="1" gridSize="10" guides="1" tooltips="1" connect="1" arrows="1" fold="1" page="1" pageScale="1" pageWidth="827" pageHeight="1169" math="0" shadow="0">
      <root>
        <mxCell id="0" />
        <mxCell id="1" parent="0" />
        <mxCell id="b6Z9mGRuPLG8XP2epYKp-10" value="No" style="edgeStyle=orthogonalEdgeStyle;rounded=0;orthogonalLoop=1;jettySize=auto;html=1;exitX=1;exitY=0.5;exitDx=0;exitDy=0;exitPerimeter=0;entryX=0.5;entryY=0;entryDx=0;entryDy=0;" edge="1" parent="1" source="b6Z9mGRuPLG8XP2epYKp-2" target="b6Z9mGRuPLG8XP2epYKp-6">
          <mxGeometry relative="1" as="geometry" />
        </mxCell>
        <mxCell id="b6Z9mGRuPLG8XP2epYKp-2" value="成功" style="strokeWidth=2;html=1;shape=mxgraph.flowchart.decision;whiteSpace=wrap;" vertex="1" parent="1">
          <mxGeometry x="302" y="310" width="100" height="80" as="geometry" />
        </mxCell>
        <mxCell id="b6Z9mGRuPLG8XP2epYKp-11" value="No" style="edgeStyle=orthogonalEdgeStyle;rounded=0;orthogonalLoop=1;jettySize=auto;html=1;exitX=1;exitY=0.5;exitDx=0;exitDy=0;exitPerimeter=0;entryX=0.083;entryY=0.667;entryDx=0;entryDy=0;entryPerimeter=0;" edge="1" parent="1">
          <mxGeometry relative="1" as="geometry">
            <mxPoint x="399" y="460" as="sourcePoint" />
            <mxPoint x="526.96" y="460.02" as="targetPoint" />
          </mxGeometry>
        </mxCell>
        <mxCell id="b6Z9mGRuPLG8XP2epYKp-13" style="edgeStyle=orthogonalEdgeStyle;rounded=0;orthogonalLoop=1;jettySize=auto;html=1;exitX=0.5;exitY=1;exitDx=0;exitDy=0;exitPerimeter=0;entryX=0.5;entryY=0;entryDx=0;entryDy=0;entryPerimeter=0;" edge="1" parent="1" source="b6Z9mGRuPLG8XP2epYKp-3" target="b6Z9mGRuPLG8XP2epYKp-4">
          <mxGeometry relative="1" as="geometry" />
        </mxCell>
        <mxCell id="b6Z9mGRuPLG8XP2epYKp-3" value="状态码==200" style="strokeWidth=2;html=1;shape=mxgraph.flowchart.decision;whiteSpace=wrap;" vertex="1" parent="1">
          <mxGeometry x="302" y="420" width="100" height="80" as="geometry" />
        </mxCell>
        <mxCell id="b6Z9mGRuPLG8XP2epYKp-14" style="edgeStyle=orthogonalEdgeStyle;rounded=0;orthogonalLoop=1;jettySize=auto;html=1;exitX=0.5;exitY=1;exitDx=0;exitDy=0;exitPerimeter=0;entryX=0.5;entryY=0;entryDx=0;entryDy=0;entryPerimeter=0;" edge="1" parent="1" source="b6Z9mGRuPLG8XP2epYKp-4" target="b6Z9mGRuPLG8XP2epYKp-5">
          <mxGeometry relative="1" as="geometry" />
        </mxCell>
        <mxCell id="b6Z9mGRuPLG8XP2epYKp-15" value="No" style="edgeStyle=orthogonalEdgeStyle;rounded=0;orthogonalLoop=1;jettySize=auto;html=1;exitX=1;exitY=0.5;exitDx=0;exitDy=0;exitPerimeter=0;" edge="1" parent="1">
          <mxGeometry relative="1" as="geometry">
            <mxPoint x="479" y="570" as="sourcePoint" />
            <mxPoint x="577" y="480" as="targetPoint" />
          </mxGeometry>
        </mxCell>
        <mxCell id="b6Z9mGRuPLG8XP2epYKp-4" value="阻塞读4字节,网络大端得到报文&lt;br&gt;长度整数n" style="strokeWidth=2;html=1;shape=mxgraph.flowchart.decision;whiteSpace=wrap;" vertex="1" parent="1">
          <mxGeometry x="212" y="530" width="280" height="80" as="geometry" />
        </mxCell>
        <mxCell id="b6Z9mGRuPLG8XP2epYKp-16" value="No" style="edgeStyle=orthogonalEdgeStyle;rounded=0;orthogonalLoop=1;jettySize=auto;html=1;exitX=1;exitY=0.5;exitDx=0;exitDy=0;exitPerimeter=0;" edge="1" parent="1">
          <mxGeometry relative="1" as="geometry">
            <mxPoint x="475" y="684" as="sourcePoint" />
            <mxPoint x="600" y="480" as="targetPoint" />
          </mxGeometry>
        </mxCell>
        <mxCell id="b6Z9mGRuPLG8XP2epYKp-17" value="循环读取,直到结束" style="edgeStyle=orthogonalEdgeStyle;rounded=0;orthogonalLoop=1;jettySize=auto;html=1;exitX=0;exitY=0.5;exitDx=0;exitDy=0;exitPerimeter=0;entryX=0;entryY=0.5;entryDx=0;entryDy=0;entryPerimeter=0;" edge="1" parent="1">
          <mxGeometry relative="1" as="geometry">
            <mxPoint x="217" y="681" as="sourcePoint" />
            <mxPoint x="212" y="566" as="targetPoint" />
            <Array as="points">
              <mxPoint x="170" y="686" />
              <mxPoint x="170" y="566" />
            </Array>
          </mxGeometry>
        </mxCell>
        <mxCell id="b6Z9mGRuPLG8XP2epYKp-5" value="阻塞读n字节,得到一个消息体,&lt;br&gt;抛给业务," style="strokeWidth=2;html=1;shape=mxgraph.flowchart.decision;whiteSpace=wrap;" vertex="1" parent="1">
          <mxGeometry x="217" y="650" width="270" height="70" as="geometry" />
        </mxCell>
        <mxCell id="b6Z9mGRuPLG8XP2epYKp-6" value="结束" style="rounded=1;whiteSpace=wrap;html=1;" vertex="1" parent="1">
          <mxGeometry x="530" y="420" width="100" height="60" as="geometry" />
        </mxCell>
        <mxCell id="b6Z9mGRuPLG8XP2epYKp-7" value="sdk发送请求" style="rounded=1;whiteSpace=wrap;html=1;" vertex="1" parent="1">
          <mxGeometry x="292" y="210" width="120" height="60" as="geometry" />
        </mxCell>
        <mxCell id="b6Z9mGRuPLG8XP2epYKp-8" value="" style="endArrow=classic;html=1;rounded=0;entryX=0.5;entryY=0;entryDx=0;entryDy=0;entryPerimeter=0;exitX=0.5;exitY=1;exitDx=0;exitDy=0;" edge="1" parent="1" source="b6Z9mGRuPLG8XP2epYKp-7" target="b6Z9mGRuPLG8XP2epYKp-2">
          <mxGeometry width="50" height="50" relative="1" as="geometry">
            <mxPoint x="340" y="280" as="sourcePoint" />
            <mxPoint x="390" y="230" as="targetPoint" />
          </mxGeometry>
        </mxCell>
        <mxCell id="b6Z9mGRuPLG8XP2epYKp-9" value="" style="endArrow=classic;html=1;rounded=0;entryX=0.424;entryY=0.032;entryDx=0;entryDy=0;entryPerimeter=0;" edge="1" parent="1">
          <mxGeometry width="50" height="50" relative="1" as="geometry">
            <mxPoint x="350" y="390" as="sourcePoint" />
            <mxPoint x="350.4000000000001" y="422.55999999999995" as="targetPoint" />
          </mxGeometry>
        </mxCell>
      </root>
    </mxGraphModel>
  </diagram>
</mxfile>
